<svg width="20" height="22" viewBox="0 0 20 22" fill="none" xmlns="http://www.w3.org/2000/svg">
<g id="Icon">
<path id="Icon_2" fill-rule="evenodd" clip-rule="evenodd" d="M19.2489 15.3015C18.7766 14.8702 18.5047 14.2397 18.5047 13.5761V8.10481C18.5047 3.62106 14.6988 0 10 0C5.30116 0 1.4953 3.62106 1.4953 8.10481V13.5761C1.49534 14.2397 1.22345 14.8702 0.751143 15.3015C-0.854118 16.8339 0.283385 19.4447 2.55839 19.4447H6.59812C7.11355 20.9776 8.47469 22 10 22C11.5253 22 12.8865 20.9776 13.4019 19.4447H17.4416C19.7166 19.4447 20.8541 16.8339 19.2489 15.3015ZM10 20.296C9.36726 20.2935 8.771 19.9794 8.38413 19.4447H11.5734C11.1988 19.9709 10.6189 20.2847 10 20.296ZM17.4523 17.742C17.8388 17.7794 18.2067 17.5581 18.3771 17.1858C18.4599 16.9616 18.3846 16.7061 18.1964 16.5729C17.3954 15.8099 16.9324 14.7221 16.9207 13.5761V8.10481C16.9207 4.57457 13.8165 1.7027 10.0106 1.7027C6.20479 1.7027 3.10058 4.57457 3.10058 8.10481V13.5761C3.08892 14.7221 2.62584 15.8099 1.82487 16.5729C1.63279 16.7027 1.5528 16.9589 1.63352 17.1858C1.80392 17.5581 2.1719 17.7794 2.5584 17.742H17.4523Z" fill="#272932"/>
</g>
</svg>
